# xmcd
#
# Track frame offsets: 
#        150
#        9145
#        23766
#        43265
#        60854
#        77648
#        97229
#        132249
#        150513
#        168438
#        191885
#
# Disc length: 2701 seconds
#
# Revision: 0
# Processed by: cddbd v1.5.2PL0 Copyright (c) Steve Scherf et al.
# Submitted via: ExactAudioCopy v0.95a5
#
DISCID=810a8b0b
DTITLE=The Eagles - Long Road Out Of Eden [CD 1)
DYEAR=2007
DGENRE=Country
TTITLE0=No More Walks In The Wood
TTITLE1=How Long
TTITLE2=Busy Being Fabulous
TTITLE3=What Do I Do With My Heart
TTITLE4=Guilty Of The Crime
TTITLE5=I Don't Want To Hear Any More
TTITLE6=Waiting In The Weeds
TTITLE7=No More Cloudy Days
TTITLE8=Fast Company
TTITLE9=Do Something
TTITLE10=You Are Not Alone
EXTD=
EXTT0=
EXTT1=
EXTT2=
EXTT3=
EXTT4=
EXTT5=
EXTT6=
EXTT7=
EXTT8=
EXTT9=
EXTT10=
PLAYORDER=
